<mxfile host="app.diagrams.net" modified="2021-03-31T02:35:23.171Z" agent="5.0 (Windows NT 10.0; Win64; x64) AppleWebKit/537.36 (KHTML, like Gecko) Chrome/89.0.4389.90 Safari/537.36" etag="si21_3z47nBjCMkk902s" version="13.6.9" type="github" pages="2">
  <diagram id="R2lEEEUBdFMjLlhIrx00" name="Page-1">
    <mxGraphModel dx="1662" dy="794" grid="1" gridSize="10" guides="1" tooltips="1" connect="1" arrows="1" fold="1" page="1" pageScale="1" pageWidth="850" pageHeight="1100" math="0" shadow="0" extFonts="Permanent Marker^https://fonts.googleapis.com/css?family=Permanent+Marker">
      <root>
        <mxCell id="0" />
        <mxCell id="1" parent="0" />
        <mxCell id="C-vyLk0tnHw3VtMMgP7b-12" value="" style="edgeStyle=entityRelationEdgeStyle;endArrow=ERzeroToMany;startArrow=ERone;endFill=1;startFill=0;" parent="1" source="C-vyLk0tnHw3VtMMgP7b-3" target="C-vyLk0tnHw3VtMMgP7b-17" edge="1">
          <mxGeometry width="100" height="100" relative="1" as="geometry">
            <mxPoint x="490" y="450" as="sourcePoint" />
            <mxPoint x="550" y="475" as="targetPoint" />
          </mxGeometry>
        </mxCell>
        <mxCell id="tCcz-3uAyz8Q7EyDNhUn-16" value="" style="group" vertex="1" connectable="0" parent="1">
          <mxGeometry x="90" y="160" width="250" height="220" as="geometry" />
        </mxCell>
        <mxCell id="tCcz-3uAyz8Q7EyDNhUn-1" value="交易" style="shape=table;startSize=30;container=1;collapsible=1;childLayout=tableLayout;fixedRows=1;rowLines=0;fontStyle=1;align=center;resizeLast=1;" vertex="1" parent="tCcz-3uAyz8Q7EyDNhUn-16">
          <mxGeometry width="190" height="220" as="geometry" />
        </mxCell>
        <mxCell id="tCcz-3uAyz8Q7EyDNhUn-2" value="" style="shape=partialRectangle;collapsible=0;dropTarget=0;pointerEvents=0;fillColor=none;points=[[0,0.5],[1,0.5]];portConstraint=eastwest;top=0;left=0;right=0;bottom=1;" vertex="1" parent="tCcz-3uAyz8Q7EyDNhUn-1">
          <mxGeometry y="30" width="190" height="30" as="geometry" />
        </mxCell>
        <mxCell id="tCcz-3uAyz8Q7EyDNhUn-3" value="PK" style="shape=partialRectangle;overflow=hidden;connectable=0;fillColor=none;top=0;left=0;bottom=0;right=0;fontStyle=1;" vertex="1" parent="tCcz-3uAyz8Q7EyDNhUn-2">
          <mxGeometry width="30" height="30" as="geometry" />
        </mxCell>
        <mxCell id="tCcz-3uAyz8Q7EyDNhUn-4" value="记账流水号" style="shape=partialRectangle;overflow=hidden;connectable=0;fillColor=none;top=0;left=0;bottom=0;right=0;align=left;spacingLeft=6;fontStyle=5;" vertex="1" parent="tCcz-3uAyz8Q7EyDNhUn-2">
          <mxGeometry x="30" width="160" height="30" as="geometry" />
        </mxCell>
        <mxCell id="tCcz-3uAyz8Q7EyDNhUn-5" value="" style="shape=partialRectangle;collapsible=0;dropTarget=0;pointerEvents=0;fillColor=none;points=[[0,0.5],[1,0.5]];portConstraint=eastwest;top=0;left=0;right=0;bottom=0;" vertex="1" parent="tCcz-3uAyz8Q7EyDNhUn-1">
          <mxGeometry y="60" width="190" height="30" as="geometry" />
        </mxCell>
        <mxCell id="tCcz-3uAyz8Q7EyDNhUn-6" value="" style="shape=partialRectangle;overflow=hidden;connectable=0;fillColor=none;top=0;left=0;bottom=0;right=0;" vertex="1" parent="tCcz-3uAyz8Q7EyDNhUn-5">
          <mxGeometry width="30" height="30" as="geometry" />
        </mxCell>
        <mxCell id="tCcz-3uAyz8Q7EyDNhUn-7" value="核算产品" style="shape=partialRectangle;overflow=hidden;connectable=0;fillColor=none;top=0;left=0;bottom=0;right=0;align=left;spacingLeft=6;" vertex="1" parent="tCcz-3uAyz8Q7EyDNhUn-5">
          <mxGeometry x="30" width="160" height="30" as="geometry" />
        </mxCell>
        <mxCell id="tCcz-3uAyz8Q7EyDNhUn-8" value="标准交易类型" style="shape=partialRectangle;overflow=hidden;connectable=0;fillColor=none;top=0;left=0;bottom=0;right=0;align=left;spacingLeft=6;" vertex="1" parent="tCcz-3uAyz8Q7EyDNhUn-16">
          <mxGeometry x="30" y="80" width="220" height="30" as="geometry" />
        </mxCell>
        <mxCell id="tCcz-3uAyz8Q7EyDNhUn-9" value="机构" style="shape=partialRectangle;overflow=hidden;connectable=0;fillColor=none;top=0;left=0;bottom=0;right=0;align=left;spacingLeft=6;" vertex="1" parent="tCcz-3uAyz8Q7EyDNhUn-16">
          <mxGeometry x="30" y="100" width="220" height="30" as="geometry" />
        </mxCell>
        <mxCell id="tCcz-3uAyz8Q7EyDNhUn-10" value="币种" style="shape=partialRectangle;overflow=hidden;connectable=0;fillColor=none;top=0;left=0;bottom=0;right=0;align=left;spacingLeft=6;" vertex="1" parent="tCcz-3uAyz8Q7EyDNhUn-16">
          <mxGeometry x="30" y="120" width="220" height="30" as="geometry" />
        </mxCell>
        <mxCell id="tCcz-3uAyz8Q7EyDNhUn-11" value="核算金额1" style="shape=partialRectangle;overflow=hidden;connectable=0;fillColor=none;top=0;left=0;bottom=0;right=0;align=left;spacingLeft=6;" vertex="1" parent="tCcz-3uAyz8Q7EyDNhUn-16">
          <mxGeometry x="30" y="140" width="220" height="30" as="geometry" />
        </mxCell>
        <mxCell id="tCcz-3uAyz8Q7EyDNhUn-12" value="核算金额2" style="shape=partialRectangle;overflow=hidden;connectable=0;fillColor=none;top=0;left=0;bottom=0;right=0;align=left;spacingLeft=6;" vertex="1" parent="tCcz-3uAyz8Q7EyDNhUn-16">
          <mxGeometry x="30" y="160" width="220" height="30" as="geometry" />
        </mxCell>
        <mxCell id="tCcz-3uAyz8Q7EyDNhUn-28" value="1" style="text;html=1;strokeColor=none;fillColor=none;align=center;verticalAlign=middle;whiteSpace=wrap;rounded=0;" vertex="1" parent="1">
          <mxGeometry x="180" y="380" width="40" height="20" as="geometry" />
        </mxCell>
        <mxCell id="tCcz-3uAyz8Q7EyDNhUn-29" value="1" style="text;html=1;strokeColor=none;fillColor=none;align=center;verticalAlign=middle;whiteSpace=wrap;rounded=0;" vertex="1" parent="1">
          <mxGeometry x="195" y="450" width="40" height="20" as="geometry" />
        </mxCell>
        <mxCell id="tCcz-3uAyz8Q7EyDNhUn-36" value="" style="group" vertex="1" connectable="0" parent="1">
          <mxGeometry x="85" y="720" width="260" height="250" as="geometry" />
        </mxCell>
        <mxCell id="tCcz-3uAyz8Q7EyDNhUn-17" value="记账明细" style="shape=table;startSize=30;container=1;collapsible=1;childLayout=tableLayout;fixedRows=1;rowLines=0;fontStyle=1;align=center;resizeLast=1;" vertex="1" parent="tCcz-3uAyz8Q7EyDNhUn-36">
          <mxGeometry width="240" height="190" as="geometry" />
        </mxCell>
        <mxCell id="tCcz-3uAyz8Q7EyDNhUn-18" value="" style="shape=partialRectangle;collapsible=0;dropTarget=0;pointerEvents=0;fillColor=none;points=[[0,0.5],[1,0.5]];portConstraint=eastwest;top=0;left=0;right=0;bottom=1;" vertex="1" parent="tCcz-3uAyz8Q7EyDNhUn-17">
          <mxGeometry y="30" width="240" height="30" as="geometry" />
        </mxCell>
        <mxCell id="tCcz-3uAyz8Q7EyDNhUn-19" value="PK" style="shape=partialRectangle;overflow=hidden;connectable=0;fillColor=none;top=0;left=0;bottom=0;right=0;fontStyle=1;" vertex="1" parent="tCcz-3uAyz8Q7EyDNhUn-18">
          <mxGeometry width="30" height="30" as="geometry" />
        </mxCell>
        <mxCell id="tCcz-3uAyz8Q7EyDNhUn-20" value="ID" style="shape=partialRectangle;overflow=hidden;connectable=0;fillColor=none;top=0;left=0;bottom=0;right=0;align=left;spacingLeft=6;fontStyle=5;" vertex="1" parent="tCcz-3uAyz8Q7EyDNhUn-18">
          <mxGeometry x="30" width="210" height="30" as="geometry" />
        </mxCell>
        <mxCell id="tCcz-3uAyz8Q7EyDNhUn-21" value="" style="shape=partialRectangle;collapsible=0;dropTarget=0;pointerEvents=0;fillColor=none;points=[[0,0.5],[1,0.5]];portConstraint=eastwest;top=0;left=0;right=0;bottom=0;" vertex="1" parent="tCcz-3uAyz8Q7EyDNhUn-17">
          <mxGeometry y="60" width="240" height="30" as="geometry" />
        </mxCell>
        <mxCell id="tCcz-3uAyz8Q7EyDNhUn-22" value="FK1" style="shape=partialRectangle;overflow=hidden;connectable=0;fillColor=none;top=0;left=0;bottom=0;right=0;" vertex="1" parent="tCcz-3uAyz8Q7EyDNhUn-21">
          <mxGeometry width="30" height="30" as="geometry" />
        </mxCell>
        <mxCell id="tCcz-3uAyz8Q7EyDNhUn-23" value="金额取值公式" style="shape=partialRectangle;overflow=hidden;connectable=0;fillColor=none;top=0;left=0;bottom=0;right=0;align=left;spacingLeft=6;" vertex="1" parent="tCcz-3uAyz8Q7EyDNhUn-21">
          <mxGeometry x="30" width="210" height="30" as="geometry" />
        </mxCell>
        <mxCell id="tCcz-3uAyz8Q7EyDNhUn-24" value="" style="shape=partialRectangle;collapsible=0;dropTarget=0;pointerEvents=0;fillColor=none;points=[[0,0.5],[1,0.5]];portConstraint=eastwest;top=0;left=0;right=0;bottom=0;" vertex="1" parent="tCcz-3uAyz8Q7EyDNhUn-17">
          <mxGeometry y="90" width="240" height="30" as="geometry" />
        </mxCell>
        <mxCell id="tCcz-3uAyz8Q7EyDNhUn-25" value="" style="shape=partialRectangle;overflow=hidden;connectable=0;fillColor=none;top=0;left=0;bottom=0;right=0;" vertex="1" parent="tCcz-3uAyz8Q7EyDNhUn-24">
          <mxGeometry width="30" height="30" as="geometry" />
        </mxCell>
        <mxCell id="tCcz-3uAyz8Q7EyDNhUn-26" value="金额类型" style="shape=partialRectangle;overflow=hidden;connectable=0;fillColor=none;top=0;left=0;bottom=0;right=0;align=left;spacingLeft=6;" vertex="1" parent="tCcz-3uAyz8Q7EyDNhUn-24">
          <mxGeometry x="30" width="210" height="30" as="geometry" />
        </mxCell>
        <mxCell id="tCcz-3uAyz8Q7EyDNhUn-27" value="借/贷" style="shape=partialRectangle;overflow=hidden;connectable=0;fillColor=none;top=0;left=0;bottom=0;right=0;align=left;spacingLeft=6;" vertex="1" parent="tCcz-3uAyz8Q7EyDNhUn-36">
          <mxGeometry x="30" y="120" width="230" height="30" as="geometry" />
        </mxCell>
        <mxCell id="tCcz-3uAyz8Q7EyDNhUn-35" value="科目取值逻辑" style="shape=partialRectangle;overflow=hidden;connectable=0;fillColor=none;top=0;left=0;bottom=0;right=0;align=left;spacingLeft=6;" vertex="1" parent="tCcz-3uAyz8Q7EyDNhUn-36">
          <mxGeometry x="30" y="150" width="230" height="30" as="geometry" />
        </mxCell>
        <mxCell id="tCcz-3uAyz8Q7EyDNhUn-37" value="N" style="text;html=1;strokeColor=none;fillColor=none;align=center;verticalAlign=middle;whiteSpace=wrap;rounded=0;" vertex="1" parent="1">
          <mxGeometry x="380" y="800" width="40" height="20" as="geometry" />
        </mxCell>
        <mxCell id="tCcz-3uAyz8Q7EyDNhUn-39" value="" style="group" vertex="1" connectable="0" parent="1">
          <mxGeometry x="470" y="390" width="330" height="225" as="geometry" />
        </mxCell>
        <mxCell id="C-vyLk0tnHw3VtMMgP7b-2" value="核算条件" style="shape=table;startSize=30;container=1;collapsible=1;childLayout=tableLayout;fixedRows=1;rowLines=0;fontStyle=1;align=center;resizeLast=1;" parent="tCcz-3uAyz8Q7EyDNhUn-39" vertex="1">
          <mxGeometry x="70" width="260" height="190" as="geometry" />
        </mxCell>
        <mxCell id="C-vyLk0tnHw3VtMMgP7b-3" value="" style="shape=partialRectangle;collapsible=0;dropTarget=0;pointerEvents=0;fillColor=none;points=[[0,0.5],[1,0.5]];portConstraint=eastwest;top=0;left=0;right=0;bottom=1;" parent="C-vyLk0tnHw3VtMMgP7b-2" vertex="1">
          <mxGeometry y="30" width="260" height="30" as="geometry" />
        </mxCell>
        <mxCell id="C-vyLk0tnHw3VtMMgP7b-4" value="PK" style="shape=partialRectangle;overflow=hidden;connectable=0;fillColor=none;top=0;left=0;bottom=0;right=0;fontStyle=1;" parent="C-vyLk0tnHw3VtMMgP7b-3" vertex="1">
          <mxGeometry width="30" height="30" as="geometry" />
        </mxCell>
        <mxCell id="C-vyLk0tnHw3VtMMgP7b-5" value="ID" style="shape=partialRectangle;overflow=hidden;connectable=0;fillColor=none;top=0;left=0;bottom=0;right=0;align=left;spacingLeft=6;fontStyle=5;" parent="C-vyLk0tnHw3VtMMgP7b-3" vertex="1">
          <mxGeometry x="30" width="230" height="30" as="geometry" />
        </mxCell>
        <mxCell id="C-vyLk0tnHw3VtMMgP7b-6" value="" style="shape=partialRectangle;collapsible=0;dropTarget=0;pointerEvents=0;fillColor=none;points=[[0,0.5],[1,0.5]];portConstraint=eastwest;top=0;left=0;right=0;bottom=0;" parent="C-vyLk0tnHw3VtMMgP7b-2" vertex="1">
          <mxGeometry y="60" width="260" height="30" as="geometry" />
        </mxCell>
        <mxCell id="C-vyLk0tnHw3VtMMgP7b-7" value="FK1" style="shape=partialRectangle;overflow=hidden;connectable=0;fillColor=none;top=0;left=0;bottom=0;right=0;" parent="C-vyLk0tnHw3VtMMgP7b-6" vertex="1">
          <mxGeometry width="30" height="30" as="geometry" />
        </mxCell>
        <mxCell id="C-vyLk0tnHw3VtMMgP7b-8" value="系统编码" style="shape=partialRectangle;overflow=hidden;connectable=0;fillColor=none;top=0;left=0;bottom=0;right=0;align=left;spacingLeft=6;" parent="C-vyLk0tnHw3VtMMgP7b-6" vertex="1">
          <mxGeometry x="30" width="230" height="30" as="geometry" />
        </mxCell>
        <mxCell id="C-vyLk0tnHw3VtMMgP7b-9" value="" style="shape=partialRectangle;collapsible=0;dropTarget=0;pointerEvents=0;fillColor=none;points=[[0,0.5],[1,0.5]];portConstraint=eastwest;top=0;left=0;right=0;bottom=0;" parent="C-vyLk0tnHw3VtMMgP7b-2" vertex="1">
          <mxGeometry y="90" width="260" height="30" as="geometry" />
        </mxCell>
        <mxCell id="C-vyLk0tnHw3VtMMgP7b-10" value="" style="shape=partialRectangle;overflow=hidden;connectable=0;fillColor=none;top=0;left=0;bottom=0;right=0;" parent="C-vyLk0tnHw3VtMMgP7b-9" vertex="1">
          <mxGeometry width="30" height="30" as="geometry" />
        </mxCell>
        <mxCell id="C-vyLk0tnHw3VtMMgP7b-11" value="核算条件1" style="shape=partialRectangle;overflow=hidden;connectable=0;fillColor=none;top=0;left=0;bottom=0;right=0;align=left;spacingLeft=6;" parent="C-vyLk0tnHw3VtMMgP7b-9" vertex="1">
          <mxGeometry x="30" width="230" height="30" as="geometry" />
        </mxCell>
        <mxCell id="tCcz-3uAyz8Q7EyDNhUn-30" value="N" style="text;html=1;strokeColor=none;fillColor=none;align=center;verticalAlign=middle;whiteSpace=wrap;rounded=0;" vertex="1" parent="tCcz-3uAyz8Q7EyDNhUn-39">
          <mxGeometry y="30" width="40" height="20" as="geometry" />
        </mxCell>
        <mxCell id="tCcz-3uAyz8Q7EyDNhUn-33" value="1" style="text;html=1;strokeColor=none;fillColor=none;align=center;verticalAlign=middle;whiteSpace=wrap;rounded=0;" vertex="1" parent="tCcz-3uAyz8Q7EyDNhUn-39">
          <mxGeometry x="180" y="205" width="40" height="20" as="geometry" />
        </mxCell>
        <mxCell id="tCcz-3uAyz8Q7EyDNhUn-38" value="核算条件2" style="shape=partialRectangle;overflow=hidden;connectable=0;fillColor=none;top=0;left=0;bottom=0;right=0;align=left;spacingLeft=6;" vertex="1" parent="tCcz-3uAyz8Q7EyDNhUn-39">
          <mxGeometry x="100" y="120" width="230" height="30" as="geometry" />
        </mxCell>
        <mxCell id="tCcz-3uAyz8Q7EyDNhUn-55" style="edgeStyle=orthogonalEdgeStyle;rounded=0;orthogonalLoop=1;jettySize=auto;html=1;exitX=0.5;exitY=1;exitDx=0;exitDy=0;entryX=0.594;entryY=-0.013;entryDx=0;entryDy=0;entryPerimeter=0;" edge="1" parent="1" source="tCcz-3uAyz8Q7EyDNhUn-1" target="C-vyLk0tnHw3VtMMgP7b-23">
          <mxGeometry relative="1" as="geometry" />
        </mxCell>
        <mxCell id="tCcz-3uAyz8Q7EyDNhUn-56" value="" style="group" vertex="1" connectable="0" parent="1">
          <mxGeometry x="500" y="690" width="300" height="160" as="geometry" />
        </mxCell>
        <mxCell id="tCcz-3uAyz8Q7EyDNhUn-40" value="" style="group" vertex="1" connectable="0" parent="tCcz-3uAyz8Q7EyDNhUn-56">
          <mxGeometry x="50" width="250" height="160" as="geometry" />
        </mxCell>
        <mxCell id="tCcz-3uAyz8Q7EyDNhUn-34" value="1" style="text;html=1;strokeColor=none;fillColor=none;align=center;verticalAlign=middle;whiteSpace=wrap;rounded=0;" vertex="1" parent="tCcz-3uAyz8Q7EyDNhUn-40">
          <mxGeometry x="80" width="40" height="20" as="geometry" />
        </mxCell>
        <mxCell id="C-vyLk0tnHw3VtMMgP7b-13" value="分录规则" style="shape=table;startSize=30;container=1;collapsible=1;childLayout=tableLayout;fixedRows=1;rowLines=0;fontStyle=1;align=center;resizeLast=1;" parent="tCcz-3uAyz8Q7EyDNhUn-40" vertex="1">
          <mxGeometry y="30" width="250" height="130" as="geometry" />
        </mxCell>
        <mxCell id="C-vyLk0tnHw3VtMMgP7b-14" value="" style="shape=partialRectangle;collapsible=0;dropTarget=0;pointerEvents=0;fillColor=none;points=[[0,0.5],[1,0.5]];portConstraint=eastwest;top=0;left=0;right=0;bottom=1;" parent="C-vyLk0tnHw3VtMMgP7b-13" vertex="1">
          <mxGeometry y="30" width="250" height="30" as="geometry" />
        </mxCell>
        <mxCell id="C-vyLk0tnHw3VtMMgP7b-15" value="PK" style="shape=partialRectangle;overflow=hidden;connectable=0;fillColor=none;top=0;left=0;bottom=0;right=0;fontStyle=1;" parent="C-vyLk0tnHw3VtMMgP7b-14" vertex="1">
          <mxGeometry width="30" height="30" as="geometry" />
        </mxCell>
        <mxCell id="C-vyLk0tnHw3VtMMgP7b-16" value="ID" style="shape=partialRectangle;overflow=hidden;connectable=0;fillColor=none;top=0;left=0;bottom=0;right=0;align=left;spacingLeft=6;fontStyle=5;" parent="C-vyLk0tnHw3VtMMgP7b-14" vertex="1">
          <mxGeometry x="30" width="220" height="30" as="geometry" />
        </mxCell>
        <mxCell id="C-vyLk0tnHw3VtMMgP7b-17" value="" style="shape=partialRectangle;collapsible=0;dropTarget=0;pointerEvents=0;fillColor=none;points=[[0,0.5],[1,0.5]];portConstraint=eastwest;top=0;left=0;right=0;bottom=0;" parent="C-vyLk0tnHw3VtMMgP7b-13" vertex="1">
          <mxGeometry y="60" width="250" height="30" as="geometry" />
        </mxCell>
        <mxCell id="C-vyLk0tnHw3VtMMgP7b-18" value="FK1" style="shape=partialRectangle;overflow=hidden;connectable=0;fillColor=none;top=0;left=0;bottom=0;right=0;" parent="C-vyLk0tnHw3VtMMgP7b-17" vertex="1">
          <mxGeometry width="30" height="30" as="geometry" />
        </mxCell>
        <mxCell id="C-vyLk0tnHw3VtMMgP7b-19" value="核算金额类型" style="shape=partialRectangle;overflow=hidden;connectable=0;fillColor=none;top=0;left=0;bottom=0;right=0;align=left;spacingLeft=6;" parent="C-vyLk0tnHw3VtMMgP7b-17" vertex="1">
          <mxGeometry x="30" width="220" height="30" as="geometry" />
        </mxCell>
        <mxCell id="C-vyLk0tnHw3VtMMgP7b-20" value="" style="shape=partialRectangle;collapsible=0;dropTarget=0;pointerEvents=0;fillColor=none;points=[[0,0.5],[1,0.5]];portConstraint=eastwest;top=0;left=0;right=0;bottom=0;" parent="C-vyLk0tnHw3VtMMgP7b-13" vertex="1">
          <mxGeometry y="90" width="250" height="30" as="geometry" />
        </mxCell>
        <mxCell id="C-vyLk0tnHw3VtMMgP7b-21" value="" style="shape=partialRectangle;overflow=hidden;connectable=0;fillColor=none;top=0;left=0;bottom=0;right=0;" parent="C-vyLk0tnHw3VtMMgP7b-20" vertex="1">
          <mxGeometry width="30" height="30" as="geometry" />
        </mxCell>
        <mxCell id="C-vyLk0tnHw3VtMMgP7b-22" value="账套编码" style="shape=partialRectangle;overflow=hidden;connectable=0;fillColor=none;top=0;left=0;bottom=0;right=0;align=left;spacingLeft=6;" parent="C-vyLk0tnHw3VtMMgP7b-20" vertex="1">
          <mxGeometry x="30" width="220" height="30" as="geometry" />
        </mxCell>
        <mxCell id="tCcz-3uAyz8Q7EyDNhUn-54" value="1" style="text;html=1;strokeColor=none;fillColor=none;align=center;verticalAlign=middle;whiteSpace=wrap;rounded=0;" vertex="1" parent="tCcz-3uAyz8Q7EyDNhUn-56">
          <mxGeometry y="90" width="40" height="20" as="geometry" />
        </mxCell>
        <mxCell id="tCcz-3uAyz8Q7EyDNhUn-60" style="edgeStyle=orthogonalEdgeStyle;rounded=0;orthogonalLoop=1;jettySize=auto;html=1;exitX=0;exitY=0.5;exitDx=0;exitDy=0;entryX=1;entryY=0.8;entryDx=0;entryDy=0;entryPerimeter=0;" edge="1" parent="1" source="C-vyLk0tnHw3VtMMgP7b-14" target="tCcz-3uAyz8Q7EyDNhUn-24">
          <mxGeometry relative="1" as="geometry" />
        </mxCell>
        <mxCell id="tCcz-3uAyz8Q7EyDNhUn-61" value="" style="edgeStyle=orthogonalEdgeStyle;rounded=0;orthogonalLoop=1;jettySize=auto;html=1;entryX=0;entryY=0.5;entryDx=0;entryDy=0;" edge="1" parent="1" source="C-vyLk0tnHw3VtMMgP7b-24" target="C-vyLk0tnHw3VtMMgP7b-3">
          <mxGeometry relative="1" as="geometry">
            <mxPoint x="420" y="470" as="targetPoint" />
          </mxGeometry>
        </mxCell>
        <mxCell id="tCcz-3uAyz8Q7EyDNhUn-62" value="" style="group" vertex="1" connectable="0" parent="1">
          <mxGeometry x="90" y="480" width="220" height="240" as="geometry" />
        </mxCell>
        <mxCell id="C-vyLk0tnHw3VtMMgP7b-23" value="账套" style="shape=table;startSize=30;container=1;collapsible=1;childLayout=tableLayout;fixedRows=1;rowLines=0;fontStyle=1;align=center;resizeLast=1;" parent="tCcz-3uAyz8Q7EyDNhUn-62" vertex="1">
          <mxGeometry y="10" width="170" height="180" as="geometry" />
        </mxCell>
        <mxCell id="C-vyLk0tnHw3VtMMgP7b-24" value="" style="shape=partialRectangle;collapsible=0;dropTarget=0;pointerEvents=0;fillColor=none;points=[[0,0.5],[1,0.5]];portConstraint=eastwest;top=0;left=0;right=0;bottom=1;" parent="C-vyLk0tnHw3VtMMgP7b-23" vertex="1">
          <mxGeometry y="30" width="170" height="30" as="geometry" />
        </mxCell>
        <mxCell id="C-vyLk0tnHw3VtMMgP7b-25" value="PK" style="shape=partialRectangle;overflow=hidden;connectable=0;fillColor=none;top=0;left=0;bottom=0;right=0;fontStyle=1;" parent="C-vyLk0tnHw3VtMMgP7b-24" vertex="1">
          <mxGeometry width="30" height="30" as="geometry" />
        </mxCell>
        <mxCell id="C-vyLk0tnHw3VtMMgP7b-26" value="ID" style="shape=partialRectangle;overflow=hidden;connectable=0;fillColor=none;top=0;left=0;bottom=0;right=0;align=left;spacingLeft=6;fontStyle=5;" parent="C-vyLk0tnHw3VtMMgP7b-24" vertex="1">
          <mxGeometry x="30" width="140" height="30" as="geometry" />
        </mxCell>
        <mxCell id="C-vyLk0tnHw3VtMMgP7b-27" value="" style="shape=partialRectangle;collapsible=0;dropTarget=0;pointerEvents=0;fillColor=none;points=[[0,0.5],[1,0.5]];portConstraint=eastwest;top=0;left=0;right=0;bottom=0;" parent="C-vyLk0tnHw3VtMMgP7b-23" vertex="1">
          <mxGeometry y="60" width="170" height="30" as="geometry" />
        </mxCell>
        <mxCell id="C-vyLk0tnHw3VtMMgP7b-28" value="" style="shape=partialRectangle;overflow=hidden;connectable=0;fillColor=none;top=0;left=0;bottom=0;right=0;" parent="C-vyLk0tnHw3VtMMgP7b-27" vertex="1">
          <mxGeometry width="30" height="30" as="geometry" />
        </mxCell>
        <mxCell id="C-vyLk0tnHw3VtMMgP7b-29" value="核算产品" style="shape=partialRectangle;overflow=hidden;connectable=0;fillColor=none;top=0;left=0;bottom=0;right=0;align=left;spacingLeft=6;" parent="C-vyLk0tnHw3VtMMgP7b-27" vertex="1">
          <mxGeometry x="30" width="140" height="30" as="geometry" />
        </mxCell>
        <mxCell id="tCcz-3uAyz8Q7EyDNhUn-13" value="标准交易类型" style="shape=partialRectangle;overflow=hidden;connectable=0;fillColor=none;top=0;left=0;bottom=0;right=0;align=left;spacingLeft=6;" vertex="1" parent="tCcz-3uAyz8Q7EyDNhUn-62">
          <mxGeometry x="30" y="95" width="130" height="30" as="geometry" />
        </mxCell>
        <mxCell id="tCcz-3uAyz8Q7EyDNhUn-14" value="机构" style="shape=partialRectangle;overflow=hidden;connectable=0;fillColor=none;top=0;left=0;bottom=0;right=0;align=left;spacingLeft=6;" vertex="1" parent="tCcz-3uAyz8Q7EyDNhUn-62">
          <mxGeometry x="30" y="125" width="130" height="30" as="geometry" />
        </mxCell>
        <mxCell id="tCcz-3uAyz8Q7EyDNhUn-15" value="币种" style="shape=partialRectangle;overflow=hidden;connectable=0;fillColor=none;top=0;left=0;bottom=0;right=0;align=left;spacingLeft=6;" vertex="1" parent="tCcz-3uAyz8Q7EyDNhUn-62">
          <mxGeometry x="30" y="150" width="130" height="30" as="geometry" />
        </mxCell>
        <mxCell id="tCcz-3uAyz8Q7EyDNhUn-31" value="1" style="text;html=1;strokeColor=none;fillColor=none;align=center;verticalAlign=middle;whiteSpace=wrap;rounded=0;" vertex="1" parent="tCcz-3uAyz8Q7EyDNhUn-62">
          <mxGeometry x="180" width="40" height="20" as="geometry" />
        </mxCell>
      </root>
    </mxGraphModel>
  </diagram>
  <diagram id="3JucS95Ga-_Bado79ybx" name="第 2 页">
    <mxGraphModel dx="1662" dy="794" grid="1" gridSize="10" guides="1" tooltips="1" connect="1" arrows="1" fold="1" page="1" pageScale="1" pageWidth="827" pageHeight="1169" math="0" shadow="0">
      <root>
        <mxCell id="DS7BerPDZezU8h9V2kEW-0" />
        <mxCell id="DS7BerPDZezU8h9V2kEW-1" parent="DS7BerPDZezU8h9V2kEW-0" />
        <mxCell id="iSXYjvYL0HkBKF_I5MWs-16" value="" style="group" vertex="1" connectable="0" parent="DS7BerPDZezU8h9V2kEW-1">
          <mxGeometry x="235" y="620" width="570" height="320" as="geometry" />
        </mxCell>
        <mxCell id="iSXYjvYL0HkBKF_I5MWs-84" value="" style="group" vertex="1" connectable="0" parent="iSXYjvYL0HkBKF_I5MWs-16">
          <mxGeometry x="305" y="80" width="265" height="240" as="geometry" />
        </mxCell>
        <mxCell id="iSXYjvYL0HkBKF_I5MWs-83" value="" style="group" vertex="1" connectable="0" parent="iSXYjvYL0HkBKF_I5MWs-84">
          <mxGeometry width="265" height="240" as="geometry" />
        </mxCell>
        <mxCell id="iSXYjvYL0HkBKF_I5MWs-82" value="" style="group" vertex="1" connectable="0" parent="iSXYjvYL0HkBKF_I5MWs-83">
          <mxGeometry width="265" height="240" as="geometry" />
        </mxCell>
        <mxCell id="iSXYjvYL0HkBKF_I5MWs-17" value="记账规则明细" style="shape=table;startSize=30;container=1;collapsible=1;childLayout=tableLayout;fixedRows=1;rowLines=0;fontStyle=1;align=center;resizeLast=1;" vertex="1" parent="iSXYjvYL0HkBKF_I5MWs-82">
          <mxGeometry y="37.89473684210526" width="259.90384615384613" height="202.10526315789474" as="geometry" />
        </mxCell>
        <mxCell id="iSXYjvYL0HkBKF_I5MWs-18" value="" style="shape=partialRectangle;collapsible=0;dropTarget=0;pointerEvents=0;fillColor=none;points=[[0,0.5],[1,0.5]];portConstraint=eastwest;top=0;left=0;right=0;bottom=1;" vertex="1" parent="iSXYjvYL0HkBKF_I5MWs-17">
          <mxGeometry y="30" width="259.90384615384613" height="30" as="geometry" />
        </mxCell>
        <mxCell id="iSXYjvYL0HkBKF_I5MWs-19" value="PK" style="shape=partialRectangle;overflow=hidden;connectable=0;fillColor=none;top=0;left=0;bottom=0;right=0;fontStyle=1;" vertex="1" parent="iSXYjvYL0HkBKF_I5MWs-18">
          <mxGeometry width="30" height="30" as="geometry" />
        </mxCell>
        <mxCell id="iSXYjvYL0HkBKF_I5MWs-20" value="ID" style="shape=partialRectangle;overflow=hidden;connectable=0;fillColor=none;top=0;left=0;bottom=0;right=0;align=left;spacingLeft=6;fontStyle=5;" vertex="1" parent="iSXYjvYL0HkBKF_I5MWs-18">
          <mxGeometry x="30" width="229.90384615384613" height="30" as="geometry" />
        </mxCell>
        <mxCell id="iSXYjvYL0HkBKF_I5MWs-21" value="" style="shape=partialRectangle;collapsible=0;dropTarget=0;pointerEvents=0;fillColor=none;points=[[0,0.5],[1,0.5]];portConstraint=eastwest;top=0;left=0;right=0;bottom=0;" vertex="1" parent="iSXYjvYL0HkBKF_I5MWs-17">
          <mxGeometry y="60" width="259.90384615384613" height="30" as="geometry" />
        </mxCell>
        <mxCell id="iSXYjvYL0HkBKF_I5MWs-22" value="FK1" style="shape=partialRectangle;overflow=hidden;connectable=0;fillColor=none;top=0;left=0;bottom=0;right=0;" vertex="1" parent="iSXYjvYL0HkBKF_I5MWs-21">
          <mxGeometry width="30" height="30" as="geometry" />
        </mxCell>
        <mxCell id="iSXYjvYL0HkBKF_I5MWs-23" value="金额取值公式" style="shape=partialRectangle;overflow=hidden;connectable=0;fillColor=none;top=0;left=0;bottom=0;right=0;align=left;spacingLeft=6;" vertex="1" parent="iSXYjvYL0HkBKF_I5MWs-21">
          <mxGeometry x="30" width="229.90384615384613" height="30" as="geometry" />
        </mxCell>
        <mxCell id="iSXYjvYL0HkBKF_I5MWs-24" value="" style="shape=partialRectangle;collapsible=0;dropTarget=0;pointerEvents=0;fillColor=none;points=[[0,0.5],[1,0.5]];portConstraint=eastwest;top=0;left=0;right=0;bottom=0;" vertex="1" parent="iSXYjvYL0HkBKF_I5MWs-17">
          <mxGeometry y="90" width="259.90384615384613" height="30" as="geometry" />
        </mxCell>
        <mxCell id="iSXYjvYL0HkBKF_I5MWs-25" value="" style="shape=partialRectangle;overflow=hidden;connectable=0;fillColor=none;top=0;left=0;bottom=0;right=0;" vertex="1" parent="iSXYjvYL0HkBKF_I5MWs-24">
          <mxGeometry width="30" height="30" as="geometry" />
        </mxCell>
        <mxCell id="iSXYjvYL0HkBKF_I5MWs-26" value="金额类型" style="shape=partialRectangle;overflow=hidden;connectable=0;fillColor=none;top=0;left=0;bottom=0;right=0;align=left;spacingLeft=6;" vertex="1" parent="iSXYjvYL0HkBKF_I5MWs-24">
          <mxGeometry x="30" width="229.90384615384613" height="30" as="geometry" />
        </mxCell>
        <mxCell id="iSXYjvYL0HkBKF_I5MWs-27" value="借/贷" style="shape=partialRectangle;overflow=hidden;connectable=0;fillColor=none;top=0;left=0;bottom=0;right=0;align=left;spacingLeft=6;" vertex="1" parent="iSXYjvYL0HkBKF_I5MWs-82">
          <mxGeometry x="30.576923076923073" y="160.0036842105263" width="234.4230769230769" height="37.89473684210526" as="geometry" />
        </mxCell>
        <mxCell id="MPGPs2D8WvydJLBV8bWA-13" value="分录规则ID" style="shape=partialRectangle;overflow=hidden;connectable=0;fillColor=none;top=0;left=0;bottom=0;right=0;align=left;spacingLeft=6;" vertex="1" parent="iSXYjvYL0HkBKF_I5MWs-82">
          <mxGeometry x="30.576923076923094" y="190.00368421052633" width="234.4230769230769" height="37.89473684210526" as="geometry" />
        </mxCell>
        <mxCell id="iSXYjvYL0HkBKF_I5MWs-61" value="" style="group" vertex="1" connectable="0" parent="DS7BerPDZezU8h9V2kEW-1">
          <mxGeometry x="20" y="430" width="230" height="219" as="geometry" />
        </mxCell>
        <mxCell id="iSXYjvYL0HkBKF_I5MWs-86" value="" style="group" vertex="1" connectable="0" parent="iSXYjvYL0HkBKF_I5MWs-61">
          <mxGeometry x="90" y="679.995" width="230" height="123.1875" as="geometry" />
        </mxCell>
        <mxCell id="iSXYjvYL0HkBKF_I5MWs-62" value="账套" style="shape=table;startSize=30;container=1;collapsible=1;childLayout=tableLayout;fixedRows=1;rowLines=0;fontStyle=1;align=center;resizeLast=1;" vertex="1" parent="iSXYjvYL0HkBKF_I5MWs-86">
          <mxGeometry width="190" height="123.1875" as="geometry" />
        </mxCell>
        <mxCell id="iSXYjvYL0HkBKF_I5MWs-63" value="" style="shape=partialRectangle;collapsible=0;dropTarget=0;pointerEvents=0;fillColor=none;points=[[0,0.5],[1,0.5]];portConstraint=eastwest;top=0;left=0;right=0;bottom=1;" vertex="1" parent="iSXYjvYL0HkBKF_I5MWs-62">
          <mxGeometry y="30" width="190" height="30" as="geometry" />
        </mxCell>
        <mxCell id="iSXYjvYL0HkBKF_I5MWs-64" value="PK" style="shape=partialRectangle;overflow=hidden;connectable=0;fillColor=none;top=0;left=0;bottom=0;right=0;fontStyle=1;" vertex="1" parent="iSXYjvYL0HkBKF_I5MWs-63">
          <mxGeometry width="30" height="30" as="geometry" />
        </mxCell>
        <mxCell id="iSXYjvYL0HkBKF_I5MWs-65" value="ID" style="shape=partialRectangle;overflow=hidden;connectable=0;fillColor=none;top=0;left=0;bottom=0;right=0;align=left;spacingLeft=6;fontStyle=5;" vertex="1" parent="iSXYjvYL0HkBKF_I5MWs-63">
          <mxGeometry x="30" width="160" height="30" as="geometry" />
        </mxCell>
        <mxCell id="iSXYjvYL0HkBKF_I5MWs-66" value="" style="shape=partialRectangle;collapsible=0;dropTarget=0;pointerEvents=0;fillColor=none;points=[[0,0.5],[1,0.5]];portConstraint=eastwest;top=0;left=0;right=0;bottom=0;" vertex="1" parent="iSXYjvYL0HkBKF_I5MWs-62">
          <mxGeometry y="60" width="190" height="30" as="geometry" />
        </mxCell>
        <mxCell id="iSXYjvYL0HkBKF_I5MWs-67" value="" style="shape=partialRectangle;overflow=hidden;connectable=0;fillColor=none;top=0;left=0;bottom=0;right=0;" vertex="1" parent="iSXYjvYL0HkBKF_I5MWs-66">
          <mxGeometry width="30" height="30" as="geometry" />
        </mxCell>
        <mxCell id="iSXYjvYL0HkBKF_I5MWs-68" value="产品生命阶段" style="shape=partialRectangle;overflow=hidden;connectable=0;fillColor=none;top=0;left=0;bottom=0;right=0;align=left;spacingLeft=6;" vertex="1" parent="iSXYjvYL0HkBKF_I5MWs-66">
          <mxGeometry x="30" width="160" height="30" as="geometry" />
        </mxCell>
        <mxCell id="iSXYjvYL0HkBKF_I5MWs-79" value="1" style="text;html=1;strokeColor=none;fillColor=none;align=center;verticalAlign=middle;whiteSpace=wrap;rounded=0;" vertex="1" parent="iSXYjvYL0HkBKF_I5MWs-86">
          <mxGeometry x="190" y="51.59500000000003" width="40" height="20" as="geometry" />
        </mxCell>
        <mxCell id="iSXYjvYL0HkBKF_I5MWs-73" value="" style="group" vertex="1" connectable="0" parent="DS7BerPDZezU8h9V2kEW-1">
          <mxGeometry x="840" y="1270" width="330" height="225" as="geometry" />
        </mxCell>
        <mxCell id="iSXYjvYL0HkBKF_I5MWs-30" value="" style="group" vertex="1" connectable="0" parent="iSXYjvYL0HkBKF_I5MWs-73">
          <mxGeometry width="330" height="225" as="geometry" />
        </mxCell>
        <mxCell id="iSXYjvYL0HkBKF_I5MWs-31" value="核算条件" style="shape=table;startSize=30;container=1;collapsible=1;childLayout=tableLayout;fixedRows=1;rowLines=0;fontStyle=1;align=center;resizeLast=1;" vertex="1" parent="iSXYjvYL0HkBKF_I5MWs-30">
          <mxGeometry x="70" width="260" height="140" as="geometry" />
        </mxCell>
        <mxCell id="iSXYjvYL0HkBKF_I5MWs-32" value="" style="shape=partialRectangle;collapsible=0;dropTarget=0;pointerEvents=0;fillColor=none;points=[[0,0.5],[1,0.5]];portConstraint=eastwest;top=0;left=0;right=0;bottom=1;" vertex="1" parent="iSXYjvYL0HkBKF_I5MWs-31">
          <mxGeometry y="30" width="260" height="20" as="geometry" />
        </mxCell>
        <mxCell id="iSXYjvYL0HkBKF_I5MWs-33" value="PK" style="shape=partialRectangle;overflow=hidden;connectable=0;fillColor=none;top=0;left=0;bottom=0;right=0;fontStyle=1;" vertex="1" parent="iSXYjvYL0HkBKF_I5MWs-32">
          <mxGeometry width="30" height="20" as="geometry" />
        </mxCell>
        <mxCell id="iSXYjvYL0HkBKF_I5MWs-34" value="ID" style="shape=partialRectangle;overflow=hidden;connectable=0;fillColor=none;top=0;left=0;bottom=0;right=0;align=left;spacingLeft=6;fontStyle=5;" vertex="1" parent="iSXYjvYL0HkBKF_I5MWs-32">
          <mxGeometry x="30" width="230" height="20" as="geometry" />
        </mxCell>
        <mxCell id="iSXYjvYL0HkBKF_I5MWs-35" value="" style="shape=partialRectangle;collapsible=0;dropTarget=0;pointerEvents=0;fillColor=none;points=[[0,0.5],[1,0.5]];portConstraint=eastwest;top=0;left=0;right=0;bottom=0;" vertex="1" parent="iSXYjvYL0HkBKF_I5MWs-31">
          <mxGeometry y="50" width="260" height="20" as="geometry" />
        </mxCell>
        <mxCell id="iSXYjvYL0HkBKF_I5MWs-36" value="FK1" style="shape=partialRectangle;overflow=hidden;connectable=0;fillColor=none;top=0;left=0;bottom=0;right=0;" vertex="1" parent="iSXYjvYL0HkBKF_I5MWs-35">
          <mxGeometry width="30" height="20" as="geometry" />
        </mxCell>
        <mxCell id="iSXYjvYL0HkBKF_I5MWs-37" value="核算产品" style="shape=partialRectangle;overflow=hidden;connectable=0;fillColor=none;top=0;left=0;bottom=0;right=0;align=left;spacingLeft=6;" vertex="1" parent="iSXYjvYL0HkBKF_I5MWs-35">
          <mxGeometry x="30" width="230" height="20" as="geometry" />
        </mxCell>
        <mxCell id="iSXYjvYL0HkBKF_I5MWs-42" value="1" style="text;html=1;strokeColor=none;fillColor=none;align=center;verticalAlign=middle;whiteSpace=wrap;rounded=0;" vertex="1" parent="iSXYjvYL0HkBKF_I5MWs-30">
          <mxGeometry x="180" y="205" width="40" height="20" as="geometry" />
        </mxCell>
        <mxCell id="MPGPs2D8WvydJLBV8bWA-6" value="规则匹配公式" style="shape=partialRectangle;overflow=hidden;connectable=0;fillColor=none;top=0;left=0;bottom=0;right=0;align=left;spacingLeft=6;" vertex="1" parent="iSXYjvYL0HkBKF_I5MWs-30">
          <mxGeometry x="100" y="70" width="230" height="20" as="geometry" />
        </mxCell>
        <mxCell id="MPGPs2D8WvydJLBV8bWA-12" value="分录规则ID" style="shape=partialRectangle;overflow=hidden;connectable=0;fillColor=none;top=0;left=0;bottom=0;right=0;align=left;spacingLeft=6;" vertex="1" parent="iSXYjvYL0HkBKF_I5MWs-30">
          <mxGeometry x="100" y="90" width="230" height="20" as="geometry" />
        </mxCell>
        <mxCell id="MPGPs2D8WvydJLBV8bWA-16" value="1" style="text;html=1;resizable=0;autosize=1;align=center;verticalAlign=middle;points=[];fillColor=none;strokeColor=none;rounded=0;" vertex="1" parent="iSXYjvYL0HkBKF_I5MWs-30">
          <mxGeometry x="40" y="40" width="20" height="20" as="geometry" />
        </mxCell>
        <mxCell id="iSXYjvYL0HkBKF_I5MWs-85" value="" style="group" vertex="1" connectable="0" parent="DS7BerPDZezU8h9V2kEW-1">
          <mxGeometry x="483" y="1050" width="300" height="180" as="geometry" />
        </mxCell>
        <mxCell id="iSXYjvYL0HkBKF_I5MWs-45" value="" style="group" vertex="1" connectable="0" parent="iSXYjvYL0HkBKF_I5MWs-85">
          <mxGeometry width="300" height="160" as="geometry" />
        </mxCell>
        <mxCell id="iSXYjvYL0HkBKF_I5MWs-46" value="" style="group" vertex="1" connectable="0" parent="iSXYjvYL0HkBKF_I5MWs-45">
          <mxGeometry x="50" width="250" height="160" as="geometry" />
        </mxCell>
        <mxCell id="iSXYjvYL0HkBKF_I5MWs-48" value="分录规则" style="shape=table;startSize=30;container=1;collapsible=1;childLayout=tableLayout;fixedRows=1;rowLines=0;fontStyle=1;align=center;resizeLast=1;" vertex="1" parent="iSXYjvYL0HkBKF_I5MWs-46">
          <mxGeometry y="30" width="250" height="130" as="geometry" />
        </mxCell>
        <mxCell id="iSXYjvYL0HkBKF_I5MWs-49" value="" style="shape=partialRectangle;collapsible=0;dropTarget=0;pointerEvents=0;fillColor=none;points=[[0,0.5],[1,0.5]];portConstraint=eastwest;top=0;left=0;right=0;bottom=1;" vertex="1" parent="iSXYjvYL0HkBKF_I5MWs-48">
          <mxGeometry y="30" width="250" height="30" as="geometry" />
        </mxCell>
        <mxCell id="iSXYjvYL0HkBKF_I5MWs-50" value="PK" style="shape=partialRectangle;overflow=hidden;connectable=0;fillColor=none;top=0;left=0;bottom=0;right=0;fontStyle=1;" vertex="1" parent="iSXYjvYL0HkBKF_I5MWs-49">
          <mxGeometry width="30" height="30" as="geometry" />
        </mxCell>
        <mxCell id="iSXYjvYL0HkBKF_I5MWs-51" value="ID" style="shape=partialRectangle;overflow=hidden;connectable=0;fillColor=none;top=0;left=0;bottom=0;right=0;align=left;spacingLeft=6;fontStyle=5;" vertex="1" parent="iSXYjvYL0HkBKF_I5MWs-49">
          <mxGeometry x="30" width="220" height="30" as="geometry" />
        </mxCell>
        <mxCell id="iSXYjvYL0HkBKF_I5MWs-52" value="" style="shape=partialRectangle;collapsible=0;dropTarget=0;pointerEvents=0;fillColor=none;points=[[0,0.5],[1,0.5]];portConstraint=eastwest;top=0;left=0;right=0;bottom=0;" vertex="1" parent="iSXYjvYL0HkBKF_I5MWs-48">
          <mxGeometry y="60" width="250" height="30" as="geometry" />
        </mxCell>
        <mxCell id="iSXYjvYL0HkBKF_I5MWs-53" value="FK1" style="shape=partialRectangle;overflow=hidden;connectable=0;fillColor=none;top=0;left=0;bottom=0;right=0;" vertex="1" parent="iSXYjvYL0HkBKF_I5MWs-52">
          <mxGeometry width="30" height="30" as="geometry" />
        </mxCell>
        <mxCell id="iSXYjvYL0HkBKF_I5MWs-54" value="核算金额类型" style="shape=partialRectangle;overflow=hidden;connectable=0;fillColor=none;top=0;left=0;bottom=0;right=0;align=left;spacingLeft=6;" vertex="1" parent="iSXYjvYL0HkBKF_I5MWs-52">
          <mxGeometry x="30" width="220" height="30" as="geometry" />
        </mxCell>
        <mxCell id="iSXYjvYL0HkBKF_I5MWs-55" value="" style="shape=partialRectangle;collapsible=0;dropTarget=0;pointerEvents=0;fillColor=none;points=[[0,0.5],[1,0.5]];portConstraint=eastwest;top=0;left=0;right=0;bottom=0;" vertex="1" parent="iSXYjvYL0HkBKF_I5MWs-48">
          <mxGeometry y="90" width="250" height="30" as="geometry" />
        </mxCell>
        <mxCell id="iSXYjvYL0HkBKF_I5MWs-56" value="" style="shape=partialRectangle;overflow=hidden;connectable=0;fillColor=none;top=0;left=0;bottom=0;right=0;" vertex="1" parent="iSXYjvYL0HkBKF_I5MWs-55">
          <mxGeometry width="30" height="30" as="geometry" />
        </mxCell>
        <mxCell id="iSXYjvYL0HkBKF_I5MWs-57" value="账套编码" style="shape=partialRectangle;overflow=hidden;connectable=0;fillColor=none;top=0;left=0;bottom=0;right=0;align=left;spacingLeft=6;" vertex="1" parent="iSXYjvYL0HkBKF_I5MWs-55">
          <mxGeometry x="30" width="220" height="30" as="geometry" />
        </mxCell>
        <mxCell id="iSXYjvYL0HkBKF_I5MWs-58" value="N" style="text;html=1;strokeColor=none;fillColor=none;align=center;verticalAlign=middle;whiteSpace=wrap;rounded=0;" vertex="1" parent="iSXYjvYL0HkBKF_I5MWs-45">
          <mxGeometry y="90" width="40" height="20" as="geometry" />
        </mxCell>
        <mxCell id="MPGPs2D8WvydJLBV8bWA-1" value="" style="edgeStyle=entityRelationEdgeStyle;fontSize=12;html=1;endArrow=ERoneToMany;exitX=1;exitY=0.5;exitDx=0;exitDy=0;entryX=0;entryY=0.5;entryDx=0;entryDy=0;" edge="1" parent="DS7BerPDZezU8h9V2kEW-1" source="iSXYjvYL0HkBKF_I5MWs-63" target="iSXYjvYL0HkBKF_I5MWs-55">
          <mxGeometry width="100" height="100" relative="1" as="geometry">
            <mxPoint x="400" y="620" as="sourcePoint" />
            <mxPoint x="500" y="520" as="targetPoint" />
          </mxGeometry>
        </mxCell>
        <mxCell id="MPGPs2D8WvydJLBV8bWA-2" value="" style="edgeStyle=entityRelationEdgeStyle;fontSize=12;html=1;endArrow=ERoneToMany;exitX=1;exitY=0.5;exitDx=0;exitDy=0;" edge="1" parent="DS7BerPDZezU8h9V2kEW-1" source="iSXYjvYL0HkBKF_I5MWs-49" target="iSXYjvYL0HkBKF_I5MWs-17">
          <mxGeometry width="100" height="100" relative="1" as="geometry">
            <mxPoint x="690" y="570" as="sourcePoint" />
            <mxPoint x="546.7500000000005" y="538.3499999999999" as="targetPoint" />
          </mxGeometry>
        </mxCell>
        <mxCell id="MPGPs2D8WvydJLBV8bWA-4" value="1" style="text;html=1;resizable=0;autosize=1;align=center;verticalAlign=middle;points=[];fillColor=none;strokeColor=none;rounded=0;" vertex="1" parent="DS7BerPDZezU8h9V2kEW-1">
          <mxGeometry x="830" y="1090" width="20" height="20" as="geometry" />
        </mxCell>
        <mxCell id="MPGPs2D8WvydJLBV8bWA-5" value="N" style="text;html=1;resizable=0;autosize=1;align=center;verticalAlign=middle;points=[];fillColor=none;strokeColor=none;rounded=0;" vertex="1" parent="DS7BerPDZezU8h9V2kEW-1">
          <mxGeometry x="827" y="850" width="20" height="20" as="geometry" />
        </mxCell>
        <mxCell id="MPGPs2D8WvydJLBV8bWA-10" value="" style="edgeStyle=entityRelationEdgeStyle;fontSize=12;html=1;endArrow=ERoneToMany;exitX=1;exitY=0.5;exitDx=0;exitDy=0;" edge="1" parent="DS7BerPDZezU8h9V2kEW-1" source="iSXYjvYL0HkBKF_I5MWs-55">
          <mxGeometry width="100" height="100" relative="1" as="geometry">
            <mxPoint x="530" y="1220" as="sourcePoint" />
            <mxPoint x="910" y="1370" as="targetPoint" />
          </mxGeometry>
        </mxCell>
        <mxCell id="MPGPs2D8WvydJLBV8bWA-14" value="N" style="text;html=1;resizable=0;autosize=1;align=center;verticalAlign=middle;points=[];fillColor=none;strokeColor=none;rounded=0;" vertex="1" parent="DS7BerPDZezU8h9V2kEW-1">
          <mxGeometry x="827" y="850" width="20" height="20" as="geometry" />
        </mxCell>
        <mxCell id="MPGPs2D8WvydJLBV8bWA-15" value="N" style="text;html=1;resizable=0;autosize=1;align=center;verticalAlign=middle;points=[];fillColor=none;strokeColor=none;rounded=0;" vertex="1" parent="DS7BerPDZezU8h9V2kEW-1">
          <mxGeometry x="820" y="1180" width="20" height="20" as="geometry" />
        </mxCell>
      </root>
    </mxGraphModel>
  </diagram>
</mxfile>
